<?xml version="1.0" encoding="utf-8"?>
<!-- Generator: Adobe Illustrator 16.0.0, SVG Export Plug-In . SVG Version: 6.00 Build 0)  -->
<!DOCTYPE svg PUBLIC "-//W3C//DTD SVG 1.1//EN" "http://www.w3.org/Graphics/SVG/1.1/DTD/svg11.dtd">
<svg version="1.1" id="Layer_1" xmlns="http://www.w3.org/2000/svg" xmlns:xlink="http://www.w3.org/1999/xlink" x="0px" y="0px"
	 width="438.048px" height="66px" viewBox="0 0 438.048 66" enable-background="new 0 0 438.048 66" xml:space="preserve">
<g>
	<path fill="#434B54" d="M10.41,42.32c0.379,0.66,0.87,1.199,1.47,1.619s1.29,0.73,2.07,0.93c0.78,0.201,1.59,0.301,2.43,0.301
		c0.6,0,1.23-0.07,1.89-0.211c0.66-0.139,1.26-0.359,1.8-0.66C20.61,44,21.06,43.6,21.42,43.1s0.54-1.129,0.54-1.891
		c0-1.279-0.85-2.239-2.55-2.879c-1.701-0.64-4.071-1.279-7.11-1.92c-1.24-0.279-2.45-0.609-3.63-0.99
		c-1.18-0.379-2.23-0.879-3.15-1.5C4.6,33.3,3.86,32.52,3.3,31.58c-0.561-0.939-0.84-2.09-0.84-3.45c0-1.999,0.39-3.639,1.17-4.92
		c0.78-1.279,1.81-2.289,3.09-3.029C8,19.44,9.439,18.919,11.04,18.62c1.599-0.3,3.24-0.45,4.92-0.45s3.31,0.161,4.89,0.48
		c1.58,0.32,2.99,0.86,4.23,1.62c1.239,0.76,2.27,1.77,3.09,3.029c0.819,1.261,1.31,2.851,1.47,4.771h-8.1
		c-0.12-1.64-0.741-2.75-1.86-3.33c-1.121-0.579-2.44-0.87-3.96-0.87c-0.48,0-1,0.03-1.56,0.09c-0.561,0.061-1.071,0.19-1.53,0.391
		c-0.46,0.2-0.85,0.49-1.17,0.87c-0.321,0.38-0.48,0.891-0.48,1.529c0,0.761,0.279,1.38,0.84,1.86c0.56,0.479,1.29,0.87,2.19,1.17
		c0.9,0.3,1.93,0.57,3.09,0.81c1.16,0.24,2.34,0.501,3.54,0.78c1.239,0.28,2.45,0.621,3.63,1.021c1.179,0.4,2.229,0.93,3.15,1.59
		c0.92,0.66,1.66,1.48,2.22,2.46c0.56,0.98,0.84,2.189,0.84,3.63c0,2.039-0.411,3.75-1.23,5.129c-0.82,1.381-1.89,2.49-3.21,3.33
		s-2.831,1.432-4.53,1.77c-1.7,0.34-3.43,0.512-5.19,0.512c-1.8,0-3.561-0.182-5.28-0.541c-1.72-0.359-3.25-0.959-4.59-1.799
		c-1.341-0.842-2.44-1.951-3.3-3.33c-0.86-1.381-1.33-3.111-1.41-5.191h8.1C9.84,40.871,10.029,41.66,10.41,42.32z"/>
	<path fill="#434B54" d="M33.659,23.57c0.879-1.32,2-2.38,3.36-3.18c1.359-0.8,2.889-1.37,4.59-1.71c1.7-0.34,3.41-0.511,5.13-0.511
		c1.56,0,3.14,0.111,4.74,0.33c1.599,0.221,3.06,0.651,4.38,1.29c1.32,0.641,2.4,1.53,3.24,2.67c0.84,1.141,1.26,2.65,1.26,4.53
		v16.139c0,1.402,0.08,2.74,0.24,4.021c0.16,1.279,0.44,2.24,0.84,2.879h-8.64c-0.16-0.48-0.291-0.969-0.39-1.469
		c-0.1-0.5-0.17-1.01-0.21-1.531c-1.36,1.4-2.96,2.381-4.8,2.941c-1.84,0.559-3.72,0.84-5.64,0.84c-1.48,0-2.86-0.182-4.14-0.541
		c-1.28-0.359-2.4-0.92-3.36-1.68s-1.71-1.719-2.25-2.881c-0.54-1.158-0.81-2.539-0.81-4.139c0-1.76,0.31-3.21,0.93-4.35
		c0.62-1.141,1.419-2.05,2.4-2.73c0.979-0.68,2.1-1.189,3.36-1.53c1.26-0.339,2.529-0.609,3.81-0.81c1.28-0.2,2.54-0.36,3.78-0.48
		c1.239-0.12,2.34-0.3,3.3-0.54c0.96-0.239,1.719-0.589,2.28-1.05c0.56-0.459,0.82-1.13,0.78-2.01c0-0.92-0.15-1.65-0.45-2.19
		c-0.3-0.54-0.7-0.96-1.2-1.26c-0.501-0.3-1.08-0.5-1.74-0.6s-1.371-0.15-2.13-0.15c-1.68,0-3,0.36-3.96,1.08s-1.521,1.92-1.68,3.6
		h-8.52C32.279,26.55,32.779,24.89,33.659,23.57z M50.489,35.6c-0.54,0.18-1.12,0.33-1.74,0.449c-0.621,0.12-1.271,0.221-1.95,0.301
		c-0.681,0.08-1.36,0.18-2.04,0.3c-0.64,0.12-1.271,0.28-1.89,0.479c-0.621,0.201-1.161,0.471-1.62,0.811
		c-0.46,0.34-0.831,0.771-1.11,1.291c-0.28,0.52-0.42,1.18-0.42,1.979c0,0.762,0.14,1.402,0.42,1.92
		c0.279,0.521,0.66,0.932,1.14,1.23c0.48,0.301,1.04,0.51,1.68,0.631c0.639,0.119,1.299,0.18,1.98,0.18c1.68,0,2.979-0.279,3.9-0.84
		c0.919-0.561,1.599-1.23,2.04-2.01c0.439-0.781,0.709-1.57,0.81-2.371c0.099-0.799,0.15-1.439,0.15-1.919v-3.18
		C51.479,35.17,51.029,35.419,50.489,35.6z"/>
	<path fill="#434B54" d="M70.918,19.01v3.96h0.12c1.04-1.681,2.36-2.9,3.96-3.66c1.6-0.76,3.36-1.141,5.28-1.141
		c2.439,0,4.539,0.461,6.3,1.38c1.76,0.921,3.219,2.141,4.38,3.66c1.16,1.521,2.02,3.291,2.58,5.311
		c0.56,2.021,0.84,4.131,0.84,6.33c0,2.08-0.28,4.08-0.84,6c-0.561,1.92-1.41,3.621-2.55,5.1c-1.14,1.48-2.561,2.662-4.26,3.541
		c-1.701,0.879-3.69,1.32-5.97,1.32c-1.92,0-3.69-0.391-5.31-1.17c-1.62-0.781-2.95-1.93-3.99-3.451h-0.12v14.701h-8.52V19.01
		H70.918z M81.989,43.609c0.939-0.559,1.7-1.289,2.28-2.189c0.58-0.9,0.99-1.949,1.23-3.15c0.24-1.2,0.36-2.42,0.36-3.66
		c0-1.239-0.13-2.46-0.39-3.66c-0.261-1.2-0.69-2.27-1.29-3.21c-0.6-0.939-1.371-1.699-2.31-2.28c-0.94-0.579-2.091-0.87-3.45-0.87
		c-1.4,0-2.57,0.291-3.51,0.87c-0.94,0.581-1.701,1.331-2.28,2.25c-0.58,0.921-0.99,1.98-1.23,3.181
		c-0.24,1.199-0.36,2.44-0.36,3.72c0,1.24,0.129,2.46,0.39,3.66c0.26,1.201,0.68,2.25,1.26,3.15c0.58,0.9,1.35,1.631,2.31,2.189
		c0.96,0.561,2.12,0.84,3.48,0.84C79.878,44.449,81.048,44.17,81.989,43.609z"/>
	<path fill="#434B54" d="M95.578,14.209V7.19h8.52v7.02H95.578z M104.098,19.01v31.019h-8.52V19.01H104.098z"/>
	<path fill="#434B54" d="M116.338,42.59c1.28,1.24,3.12,1.859,5.52,1.859c1.72,0,3.2-0.43,4.44-1.289c1.24-0.859,2-1.77,2.28-2.73
		h7.5c-1.2,3.721-3.041,6.381-5.52,7.98c-2.48,1.6-5.48,2.4-9,2.4c-2.44,0-4.641-0.391-6.6-1.17c-1.96-0.781-3.621-1.891-4.98-3.33
		c-1.36-1.441-2.41-3.16-3.15-5.16c-0.741-2-1.11-4.201-1.11-6.601c0-2.319,0.379-4.479,1.14-6.479c0.759-2,1.839-3.729,3.24-5.19
		c1.399-1.459,3.069-2.609,5.01-3.449c1.94-0.841,4.089-1.261,6.45-1.261c2.64,0,4.939,0.511,6.9,1.53
		c1.959,1.021,3.57,2.391,4.83,4.11c1.26,1.72,2.169,3.681,2.73,5.88c0.56,2.2,0.759,4.5,0.6,6.899h-22.38
		C114.358,39.35,115.058,41.35,116.338,42.59z M125.968,26.27c-1.02-1.119-2.571-1.681-4.65-1.681c-1.36,0-2.49,0.231-3.39,0.69
		c-0.9,0.46-1.62,1.03-2.16,1.71c-0.54,0.681-0.921,1.4-1.14,2.16c-0.22,0.76-0.351,1.439-0.39,2.04h13.86
		C127.698,29.03,126.988,27.39,125.968,26.27z"/>
	<path fill="#434B54" d="M146.217,19.01v4.319h0.18c1.08-1.8,2.479-3.109,4.2-3.93c1.719-0.819,3.48-1.23,5.28-1.23
		c2.28,0,4.149,0.311,5.61,0.931c1.46,0.62,2.61,1.48,3.45,2.58c0.84,1.101,1.43,2.439,1.77,4.02c0.339,1.581,0.51,3.33,0.51,5.25
		v19.08h-8.52V32.51c0-2.56-0.4-4.471-1.2-5.73c-0.801-1.26-2.22-1.89-4.26-1.89c-2.32,0-4,0.689-5.04,2.069
		c-1.041,1.38-1.56,3.651-1.56,6.811v16.259h-8.52V19.01H146.217z"/>
	<path fill="#434B54" d="M177.327,42.32c0.379,0.66,0.87,1.199,1.47,1.619s1.29,0.73,2.07,0.93c0.78,0.201,1.59,0.301,2.43,0.301
		c0.6,0,1.23-0.07,1.89-0.211c0.66-0.139,1.26-0.359,1.8-0.66c0.54-0.299,0.99-0.699,1.35-1.199s0.54-1.129,0.54-1.891
		c0-1.279-0.85-2.239-2.55-2.879c-1.701-0.64-4.071-1.279-7.11-1.92c-1.24-0.279-2.45-0.609-3.63-0.99
		c-1.18-0.379-2.23-0.879-3.15-1.5c-0.92-0.619-1.66-1.399-2.22-2.34c-0.561-0.939-0.84-2.09-0.84-3.45
		c0-1.999,0.39-3.639,1.17-4.92c0.78-1.279,1.81-2.289,3.09-3.029c1.279-0.74,2.719-1.261,4.32-1.561c1.599-0.3,3.24-0.45,4.92-0.45
		s3.31,0.161,4.89,0.48c1.58,0.32,2.99,0.86,4.23,1.62c1.239,0.76,2.27,1.77,3.09,3.029c0.819,1.261,1.31,2.851,1.47,4.771h-8.1
		c-0.12-1.64-0.741-2.75-1.86-3.33c-1.121-0.579-2.44-0.87-3.96-0.87c-0.48,0-1,0.03-1.56,0.09c-0.561,0.061-1.071,0.19-1.53,0.391
		c-0.46,0.2-0.85,0.49-1.17,0.87c-0.321,0.38-0.48,0.891-0.48,1.529c0,0.761,0.279,1.38,0.84,1.86c0.56,0.479,1.29,0.87,2.19,1.17
		c0.9,0.3,1.93,0.57,3.09,0.81c1.16,0.24,2.34,0.501,3.54,0.78c1.239,0.28,2.45,0.621,3.63,1.021c1.179,0.4,2.229,0.93,3.15,1.59
		c0.92,0.66,1.66,1.48,2.22,2.46c0.56,0.98,0.84,2.189,0.84,3.63c0,2.039-0.411,3.75-1.23,5.129c-0.82,1.381-1.89,2.49-3.21,3.33
		s-2.831,1.432-4.53,1.77c-1.7,0.34-3.43,0.512-5.19,0.512c-1.8,0-3.561-0.182-5.28-0.541c-1.72-0.359-3.25-0.959-4.59-1.799
		c-1.341-0.842-2.44-1.951-3.3-3.33c-0.86-1.381-1.33-3.111-1.41-5.191h8.1C176.756,40.871,176.946,41.66,177.327,42.32z"/>
</g>
<g>
	<path fill="#434B54" d="M203.598,62.477v-53h2.458v53H203.598z"/>
	<path fill="#434B54" d="M214.415,48.709v-2.924c2.657,1.691,5.348,2.537,8.074,2.537c2.898,0,5.098-0.6,6.599-1.799
		s2.251-2.877,2.251-5.033c0-1.898-0.504-3.412-1.514-4.542c-1.009-1.13-3.196-2.669-6.56-4.619
		c-3.761-2.19-6.142-4.024-7.143-5.499c-1.001-1.476-1.501-3.179-1.501-5.111c0-2.622,1.018-4.848,3.054-6.677
		c2.036-1.828,4.753-2.743,8.152-2.743c2.208,0,4.417,0.371,6.625,1.112v2.691c-2.174-0.982-4.495-1.475-6.961-1.475
		c-2.519,0-4.516,0.639-5.991,1.915c-1.476,1.277-2.213,2.898-2.213,4.865c0,1.898,0.505,3.407,1.514,4.528
		c1.01,1.122,3.188,2.649,6.535,4.581c3.468,1.967,5.775,3.714,6.922,5.24c1.148,1.527,1.721,3.284,1.721,5.266
		c0,2.848-0.987,5.168-2.963,6.961c-1.976,1.795-4.766,2.691-8.372,2.691c-1.277,0-2.748-0.197-4.413-0.594
		S215.295,49.227,214.415,48.709z"/>
	<path fill="#434B54" d="M256.769,50.029V34.14c0-3.14-0.569-5.438-1.708-6.896s-2.916-2.187-5.331-2.187
		c-2.277,0-4.279,0.889-6.004,2.665c-1.726,1.777-2.588,4.321-2.588,7.634v14.673h-2.381V10.797h2.381v17.494h0.104
		c2.087-3.605,5.124-5.408,9.109-5.408c2.863,0,5.047,0.923,6.547,2.769c1.502,1.847,2.252,4.494,2.252,7.944v16.433H256.769z"/>
	<path fill="#434B54" d="M280.308,50.029v-5.305h-0.104c-0.846,1.811-2.075,3.256-3.688,4.334c-1.613,1.078-3.403,1.617-5.37,1.617
		c-2.52,0-4.512-0.707-5.978-2.121c-1.467-1.414-2.2-3.199-2.2-5.357c0-4.623,3.062-7.417,9.187-8.384l8.152-1.217
		c0-5.693-2.14-8.539-6.418-8.539c-2.916,0-5.754,1.173-8.514,3.52v-2.873c0.982-0.776,2.315-1.44,3.998-1.992
		c1.682-0.553,3.265-0.828,4.748-0.828c2.727,0,4.835,0.845,6.328,2.535c1.492,1.691,2.238,4.15,2.238,7.376v17.235H280.308z
		 M273.01,36.832c-2.778,0.397-4.728,1.04-5.849,1.928c-1.122,0.889-1.682,2.334-1.682,4.334c0,1.57,0.521,2.865,1.565,3.883
		c1.043,1.018,2.497,1.525,4.36,1.525c2.553,0,4.675-0.943,6.366-2.832c1.69-1.891,2.536-4.326,2.536-7.312V35.77L273.01,36.832z"/>
	<path fill="#434B54" d="M300.51,26.014c-0.794-0.569-1.726-0.854-2.795-0.854c-2.088,0-3.84,1.078-5.254,3.234
		c-1.415,2.157-2.122,5.219-2.122,9.188v12.447h-2.329v-26.5h2.329v5.875h0.104c0.604-2.02,1.562-3.589,2.872-4.711
		c1.312-1.121,2.83-1.682,4.555-1.682c0.984,0,1.863,0.155,2.641,0.466V26.014z"/>
	<path fill="#434B54" d="M302.363,36.883c0,3.64,0.841,6.488,2.523,8.541c1.682,2.053,3.989,3.078,6.923,3.078
		c2.967,0,5.865-1.094,8.695-3.285v2.535c-2.744,1.951-5.807,2.924-9.188,2.924c-3.416,0-6.177-1.225-8.281-3.674
		c-2.105-2.449-3.157-5.908-3.157-10.377c0-3.864,1.1-7.121,3.3-9.77c2.199-2.647,5.059-3.972,8.578-3.972
		c3.296,0,5.823,1.155,7.583,3.467c1.76,2.312,2.64,5.47,2.64,9.473v1.061H302.363z M319.495,34.709
		c-0.104-3.054-0.837-5.426-2.199-7.117c-1.363-1.69-3.244-2.535-5.643-2.535c-2.484,0-4.541,0.832-6.172,2.497
		c-1.63,1.665-2.636,4.05-3.015,7.155H319.495z"/>
	<path fill="#434B54" d="M329.035,35.149v14.88h-2.562v-37.11h8.954c3.812,0,6.729,0.885,8.747,2.652
		c2.019,1.769,3.027,4.353,3.027,7.751c0,3.451-1.125,6.284-3.377,8.501c-2.251,2.218-5.404,3.325-9.459,3.325H329.035z
		 M329.035,15.274v17.521h5.279c3.347,0,5.891-0.798,7.634-2.394c1.742-1.596,2.614-3.852,2.614-6.768
		c0-5.572-3.201-8.359-9.602-8.359H329.035z"/>
	<path fill="#434B54" d="M359.803,50.676c-3.865,0-6.923-1.271-9.175-3.816c-2.251-2.545-3.377-5.852-3.377-9.924
		c0-4.399,1.178-7.841,3.532-10.325c2.355-2.484,5.456-3.727,9.304-3.727c3.778,0,6.763,1.233,8.954,3.7
		c2.19,2.468,3.287,5.884,3.287,10.248c0,4.124-1.118,7.461-3.352,10.014C366.742,49.4,363.684,50.676,359.803,50.676z
		 M359.983,25.057c-3.123,0-5.611,1.052-7.466,3.156c-1.855,2.105-2.782,5.03-2.782,8.773c0,3.468,0.905,6.253,2.718,8.359
		c1.811,2.105,4.286,3.156,7.427,3.156c3.191,0,5.65-1.035,7.376-3.105c1.725-2.07,2.588-4.941,2.588-8.617
		c0-3.778-0.859-6.677-2.575-8.695C365.552,26.066,363.123,25.057,359.983,25.057z"/>
	<path fill="#434B54" d="M377.415,16.853c-0.518,0-0.975-0.189-1.371-0.569c-0.397-0.379-0.596-0.862-0.596-1.449
		c0-0.569,0.203-1.03,0.608-1.385c0.405-0.354,0.858-0.53,1.358-0.53c0.535,0,1.005,0.173,1.411,0.518
		c0.405,0.346,0.608,0.812,0.608,1.397c0,0.553-0.199,1.026-0.596,1.424C378.441,16.655,377.968,16.853,377.415,16.853z
		 M376.251,50.029v-26.5h2.381v26.5H376.251z"/>
	<path fill="#434B54" d="M402.482,50.029V34.606c0-6.366-2.295-9.549-6.884-9.549c-2.554,0-4.649,0.936-6.288,2.808
		c-1.64,1.872-2.459,4.188-2.459,6.948v15.216h-2.381v-26.5h2.381v4.813h0.104c1.932-3.64,4.951-5.46,9.058-5.46
		c2.863,0,5.055,0.953,6.573,2.859c1.518,1.906,2.277,4.628,2.277,8.164v16.123H402.482z"/>
	<path fill="#434B54" d="M420.664,49.668c-1.242,0.586-2.406,0.879-3.493,0.879c-3.917,0-5.874-2.346-5.874-7.039V25.704h-4.762
		V23.53h4.762v-6.884c0.379-0.138,0.775-0.275,1.189-0.414c0.414-0.12,0.812-0.25,1.191-0.388v7.686h6.986v2.174h-6.986v17.494
		c0,1.83,0.288,3.154,0.866,3.973c0.578,0.82,1.557,1.229,2.938,1.229c0.983,0,2.044-0.318,3.183-0.957V49.668z"/>
</g>
<text transform="matrix(1 0 0 1 421.6123 50.0293)" fill="#434B54" font-family="'SegoeUI-Light'" font-size="60"> </text>
</svg>
